<?xml version="1.0" encoding="utf-8"?>
<!-- Generator: Adobe Illustrator 21.1.0, SVG Export Plug-In . SVG Version: 6.00 Build 0)  -->
<svg version="1.1" id="Layer_1" xmlns="http://www.w3.org/2000/svg" xmlns:xlink="http://www.w3.org/1999/xlink" x="0px" y="0px"
	 width="147.7px" height="23.3px" viewBox="0 0 147.7 23.3" style="enable-background:new 0 0 147.7 23.3;" xml:space="preserve">
<style type="text/css">
	.st0{fill:#ED1C24;}
	.st1{fill:none;stroke:#D7182A;stroke-width:0.283;stroke-miterlimit:22.926;}
	.st2{fill:#58595B;}
</style>
<path class="st0" d="M41.2,5.6l-5.1,12h-2.5l1.2-2.8l-4.2-9.3h2.5l2.8,6.5l2.7-6.5H41.2z M51.5,5.6l-4.4,6l4.5,6.1h-2.9L44.7,12v5.6
	h-2.4v-12h2.4v5.7l4-5.7H51.5z M60.8,9.3c0,1.3-0.4,2.3-1.2,3c-0.8,0.7-1.8,1.1-3.1,1.1H55v7.2l-2.4,2.8V5.6h3.6
	c0.7,0,1.3,0.1,1.8,0.2c0.9,0.2,1.5,0.6,2,1.3C60.5,7.7,60.8,8.4,60.8,9.3 M56.2,7.8H55v3.4h1.2c1.5,0,2.2-0.6,2.2-1.7
	c0-0.6-0.2-1.1-0.7-1.4C57.4,7.9,56.9,7.8,56.2,7.8"/>
<path class="st1" d="M41.2,5.6l-5.1,12h-2.5l1.2-2.8l-4.2-9.3h2.5l2.8,6.5l2.7-6.5H41.2z M51.5,5.6l-4.4,6l4.5,6.1h-2.9L44.7,12v5.6
	h-2.4v-12h2.4v5.7l4-5.7H51.5z M60.8,9.3c0,1.3-0.4,2.3-1.2,3c-0.8,0.7-1.8,1.1-3.1,1.1H55v7.2l-2.4,2.8V5.6h3.6
	c0.7,0,1.3,0.1,1.8,0.2c0.9,0.2,1.5,0.6,2,1.3C60.5,7.7,60.8,8.4,60.8,9.3z M56.2,7.8H55v3.4h1.2c1.5,0,2.2-0.6,2.2-1.7
	c0-0.6-0.2-1.1-0.7-1.4C57.4,7.9,56.9,7.8,56.2,7.8z"/>
<polygon class="st2" points="39.3,18.9 147.7,18.9 147.4,20.1 38.1,20.1 "/>
<polygon class="st0" points="13.1,0.7 16.3,0.7 20.8,20.1 8.6,20.1 "/>
<polygon class="st2" points="12.2,0.7 9,0.7 0.7,20.1 7.7,20.1 "/>
<polygon class="st2" points="17.2,0.7 20.4,0.7 28.8,20.1 21.7,20.1 "/>
<path class="st2" d="M63.3,17.6h-1.5v-7.2h1.5V17.6z M70.1,17.6h-1.5v-3h-2.4v3h-1.5v-7.2h1.5v2.9h2.4v-2.9h1.5V17.6z M74.5,19.1
	v-1.7c-0.7,0-1.3-0.2-1.9-0.5c-0.6-0.4-1-0.9-1.3-1.5C71.1,14.9,71,14.4,71,14c0-0.9,0.3-1.7,1-2.3c0.7-0.7,1.5-1,2.5-1v-0.5H76v0.5
	c0.7,0,1.4,0.2,1.9,0.5c0.6,0.4,1,0.9,1.3,1.5c0.2,0.4,0.2,0.8,0.2,1.3c0,1-0.3,1.8-1,2.4c-0.7,0.6-1.5,0.9-2.4,0.9v1.6L74.5,19.1z
	 M77.9,14c0-0.6-0.2-1-0.6-1.4C77,12.2,76.5,12,76,11.9V16c0.6,0,1-0.2,1.4-0.6C77.7,15,77.9,14.5,77.9,14 M72.6,14
	c0,0.6,0.2,1.1,0.5,1.5c0.4,0.4,0.8,0.6,1.4,0.6v-4.1c-0.5,0-1,0.2-1.4,0.6C72.7,13,72.6,13.4,72.6,14 M87.8,14c0,1.1-0.4,2-1.1,2.7
	c-0.8,0.7-1.7,1.1-2.7,1.1c-0.8,0-1.5-0.2-2.2-0.6c-0.6-0.4-1.1-1-1.4-1.7C80.1,15,80,14.5,80,14c0-1.1,0.4-1.9,1.2-2.7
	c0.8-0.7,1.7-1.1,2.7-1.1c0.8,0,1.5,0.2,2.1,0.6c0.6,0.4,1.1,1,1.4,1.7C87.7,13,87.8,13.5,87.8,14 M86.3,14c0-0.7-0.2-1.2-0.7-1.7
	c-0.5-0.5-1-0.7-1.7-0.7c-0.7,0-1.2,0.2-1.7,0.7c-0.5,0.5-0.7,1-0.7,1.7c0,0.7,0.2,1.2,0.7,1.7c0.5,0.5,1,0.7,1.7,0.7
	c0.7,0,1.2-0.2,1.7-0.7C86.1,15.2,86.3,14.6,86.3,14 M95.9,15.3c-0.3,0.7-0.8,1.3-1.4,1.7s-1.3,0.6-2.1,0.6c-0.8,0-1.5-0.2-2.2-0.6
	c-0.7-0.4-1.1-1-1.4-1.7c-0.2-0.5-0.3-1-0.3-1.5c0-1.1,0.4-2,1.2-2.7c0.7-0.7,1.7-1.1,2.7-1.1c0.8,0,1.6,0.2,2.2,0.6
	c0.6,0.4,1.1,1,1.4,1.8h-1.6c-0.4-0.7-1.1-1.1-1.9-1.1c-0.7,0-1.2,0.2-1.7,0.7c-0.4,0.5-0.7,1-0.7,1.7c0,0.7,0.2,1.3,0.7,1.7
	c0.5,0.5,1,0.7,1.7,0.7c0.8,0,1.5-0.4,1.9-1.1H95.9z M103,17.6h-1.5v-4.8l-3.3,4.8h-1.3v-7.2h1.5v4.7l3.3-4.7h1.3V17.6z M111.4,15.3
	c-0.3,0.7-0.8,1.3-1.4,1.7c-0.6,0.4-1.3,0.6-2.1,0.6c-0.8,0-1.5-0.2-2.2-0.6c-0.7-0.4-1.1-1-1.4-1.7c-0.2-0.5-0.3-1-0.3-1.5
	c0-1.1,0.4-2,1.2-2.7c0.7-0.7,1.7-1.1,2.7-1.1c0.8,0,1.6,0.2,2.2,0.6c0.6,0.4,1.1,1,1.4,1.8h-1.6c-0.4-0.7-1.1-1.1-1.9-1.1
	c-0.7,0-1.2,0.2-1.7,0.7c-0.4,0.5-0.7,1-0.7,1.7c0,0.7,0.2,1.3,0.7,1.7c0.5,0.5,1,0.7,1.7,0.7c0.8,0,1.5-0.4,1.9-1.1H111.4z
	 M116,11.7h-1.4v5.9h-1.5v-5.9h-1.4v-1.3h4.2V11.7z M120.9,17.6h-4v-7.2h4v1.3h-2.5v1.6h2.5v1.3h-2.5v1.7h2.5V17.6z M129.9,10.4v7.2
	h-1.4v-4c0-0.2,0-0.4,0-0.7c0-0.3,0-0.6,0-0.7l-2,5.5h-1l-2-5.5h0c0,0.2,0,0.4,0,0.7c0,0.3,0,0.6,0,0.7v4h-1.4v-7.2h2.1l1.8,5.2
	l1.8-5.2H129.9z M137.3,17.6h-1.5v-4.8l-3.3,4.8h-1.3v-7.2h1.5v4.7l3.3-4.7h1.3V17.6z"/>
<rect x="61.7" y="8.8" class="st2" width="1.7" height="1.1"/>
</svg>
